<?xml version="1.0" encoding="UTF-8" standalone="no"?>
<!DOCTYPE svg PUBLIC "-//W3C//DTD SVG 1.1//EN"
 "http://www.w3.org/Graphics/SVG/1.1/DTD/svg11.dtd">
<!-- Generated by graphviz version 2.43.0 (0)
 -->
<!-- Title: framework Pages: 1 -->
<svg width="888pt" height="1190pt"
 viewBox="0.00 0.00 888.40 1190.40" xmlns="http://www.w3.org/2000/svg" xmlns:xlink="http://www.w3.org/1999/xlink">
<g id="graph0" class="graph" transform="scale(1 1) rotate(0) translate(25.2 1165.2)">
<title>framework</title>
<polygon fill="#ffffff" stroke="transparent" points="-25.2,25.2 -25.2,-1165.2 863.2,-1165.2 863.2,25.2 -25.2,25.2"/>
<text text-anchor="middle" x="419" y="-1118.4" font-family="WenQuanYi Zen Hei" font-size="22.00" fill="#132d46">01 &#160;项目整体框架</text>
<text text-anchor="middle" x="419" y="-1094.4" font-family="WenQuanYi Zen Hei" font-size="22.00" fill="#132d46">chain&#45;workbench&#45;v2 · 当前主方法 reliability_chain</text>
<g id="clust1" class="cluster">
<title>cluster_inputs</title>
<path fill="#ffffff" stroke="#d7e1ed" d="M20,-977C20,-977 818,-977 818,-977 824,-977 830,-983 830,-989 830,-989 830,-1064 830,-1064 830,-1070 824,-1076 818,-1076 818,-1076 20,-1076 20,-1076 14,-1076 8,-1070 8,-1064 8,-1064 8,-989 8,-989 8,-983 14,-977 20,-977"/>
<text text-anchor="middle" x="419" y="-1058.4" font-family="WenQuanYi Zen Hei" font-size="17.00" fill="#132d46">输入层 · 数据与调查起点</text>
</g>
<g id="clust3" class="cluster">
<title>cluster_online</title>
<path fill="#ffffff" stroke="#97d1c3" d="M30,-455C30,-455 559,-455 559,-455 565,-455 571,-461 571,-467 571,-467 571,-943 571,-943 571,-949 565,-955 559,-955 559,-955 30,-955 30,-955 24,-955 18,-949 18,-943 18,-943 18,-467 18,-467 18,-461 24,-455 30,-455"/>
<text text-anchor="middle" x="294.5" y="-937.4" font-family="WenQuanYi Zen Hei" font-size="17.00" fill="#132d46">剪枝计算层 · 不读取离线参考标签</text>
</g>
<!-- data -->
<g id="node1" class="node">
<title>data</title>
<path fill="#eef4fb" stroke="#91abc6" stroke-width="1.2" d="M259.5,-1041C259.5,-1041 28.5,-1041 28.5,-1041 22.5,-1041 16.5,-1035 16.5,-1029 16.5,-1029 16.5,-997 16.5,-997 16.5,-991 22.5,-985 28.5,-985 28.5,-985 259.5,-985 259.5,-985 265.5,-985 271.5,-991 271.5,-997 271.5,-997 271.5,-1029 271.5,-1029 271.5,-1035 265.5,-1041 259.5,-1041"/>
<text text-anchor="middle" x="144" y="-1018" font-family="WenQuanYi Zen Hei" font-size="15.00" fill="#132d46">本机 E3 事件数据库 / 候选账本</text>
<text text-anchor="middle" x="144" y="-1001" font-family="WenQuanYi Zen Hei" font-size="15.00" fill="#132d46">SQLite · event_id · 关系 · 纳秒时间</text>
</g>
<!-- candidates -->
<g id="node4" class="node">
<title>candidates</title>
<path fill="#eaf7f2" stroke="#7bbba7" stroke-width="1.2" d="M249.5,-920C249.5,-920 38.5,-920 38.5,-920 32.5,-920 26.5,-914 26.5,-908 26.5,-908 26.5,-859 26.5,-859 26.5,-853 32.5,-847 38.5,-847 38.5,-847 249.5,-847 249.5,-847 255.5,-847 261.5,-853 261.5,-859 261.5,-859 261.5,-908 261.5,-908 261.5,-914 255.5,-920 249.5,-920"/>
<text text-anchor="middle" x="144" y="-897" font-family="WenQuanYi Zen Hei" font-size="15.00" fill="#132d46">候选构建</text>
<text text-anchor="middle" x="144" y="-880" font-family="WenQuanYi Zen Hei" font-size="15.00" fill="#132d46">base；部分案例另有 expanded</text>
<text text-anchor="middle" x="144" y="-863" font-family="WenQuanYi Zen Hei" font-size="15.00" fill="#132d46">边界活动触发窗口扩展</text>
</g>
<!-- data&#45;&gt;candidates -->
<g id="edge6" class="edge">
<title>data&#45;&gt;candidates</title>
<path fill="none" stroke="#57738d" d="M144,-984.96C144,-968.24 144,-946.4 144,-927.36"/>
<polygon fill="#57738d" stroke="#57738d" points="146.45,-927.22 144,-920.22 141.55,-927.22 146.45,-927.22"/>
</g>
<!-- history -->
<g id="node2" class="node">
<title>history</title>
<path fill="#eef4fb" stroke="#91abc6" stroke-width="1.2" d="M543,-1041C543,-1041 309,-1041 309,-1041 303,-1041 297,-1035 297,-1029 297,-1029 297,-997 297,-997 297,-991 303,-985 309,-985 309,-985 543,-985 543,-985 549,-985 555,-991 555,-997 555,-997 555,-1029 555,-1029 555,-1035 549,-1041 543,-1041"/>
<text text-anchor="middle" x="426" y="-1018" font-family="WenQuanYi Zen Hei" font-size="15.00" fill="#132d46">候选窗口之前的上下文历史</text>
<text text-anchor="middle" x="426" y="-1001" font-family="WenQuanYi Zen Hei" font-size="15.00" fill="#132d46">类型 / 行为语义 / 主机 / 程序群体</text>
</g>
<!-- evidence -->
<g id="node5" class="node">
<title>evidence</title>
<path fill="#eaf7f2" stroke="#7bbba7" stroke-width="1.2" d="M550.5,-920C550.5,-920 347.5,-920 347.5,-920 341.5,-920 335.5,-914 335.5,-908 335.5,-908 335.5,-859 335.5,-859 335.5,-853 341.5,-847 347.5,-847 347.5,-847 550.5,-847 550.5,-847 556.5,-847 562.5,-853 562.5,-859 562.5,-859 562.5,-908 562.5,-908 562.5,-914 556.5,-920 550.5,-920"/>
<text text-anchor="middle" x="449" y="-897" font-family="WenQuanYi Zen Hei" font-size="15.00" fill="#132d46">置信度校准的上下文稀有度</text>
<text text-anchor="middle" x="449" y="-880" font-family="WenQuanYi Zen Hei" font-size="15.00" fill="#132d46">条件行为惊异度 + 历史支持度</text>
<text text-anchor="middle" x="449" y="-863" font-family="WenQuanYi Zen Hei" font-size="15.00" fill="#132d46">融合既有频率稀有度</text>
</g>
<!-- history&#45;&gt;evidence -->
<g id="edge7" class="edge">
<title>history&#45;&gt;evidence</title>
<path fill="none" stroke="#57738d" d="M430.88,-984.96C433.91,-968.16 437.87,-946.21 441.31,-927.11"/>
<polygon fill="#57738d" stroke="#57738d" points="443.73,-927.54 442.56,-920.22 438.9,-926.67 443.73,-927.54"/>
</g>
<!-- poi -->
<g id="node3" class="node">
<title>poi</title>
<path fill="#eef4fb" stroke="#91abc6" stroke-width="1.2" d="M810,-1041C810,-1041 592,-1041 592,-1041 586,-1041 580,-1035 580,-1029 580,-1029 580,-997 580,-997 580,-991 586,-985 592,-985 592,-985 810,-985 810,-985 816,-985 822,-991 822,-997 822,-997 822,-1029 822,-1029 822,-1035 816,-1041 810,-1041"/>
<text text-anchor="middle" x="701" y="-1018" font-family="WenQuanYi Zen Hei" font-size="15.00" fill="#132d46">登记的调查起点 POI + 固定配置</text>
<text text-anchor="middle" x="701" y="-1001" font-family="WenQuanYi Zen Hei" font-size="15.00" fill="#132d46">单起点 / 全部登记 / 自适应补充</text>
</g>
<!-- scoring -->
<g id="node6" class="node">
<title>scoring</title>
<path fill="#eaf7f2" stroke="#7bbba7" stroke-width="1.2" d="M549.5,-792C549.5,-792 346.5,-792 346.5,-792 340.5,-792 334.5,-786 334.5,-780 334.5,-780 334.5,-731 334.5,-731 334.5,-725 340.5,-719 346.5,-719 346.5,-719 549.5,-719 549.5,-719 555.5,-719 561.5,-725 561.5,-731 561.5,-731 561.5,-780 561.5,-780 561.5,-786 555.5,-792 549.5,-792"/>
<text text-anchor="middle" x="448" y="-769" font-family="WenQuanYi Zen Hei" font-size="15.00" fill="#132d46">多 POI 图扩散评分</text>
<text text-anchor="middle" x="448" y="-752" font-family="WenQuanYi Zen Hei" font-size="15.00" fill="#132d46">无向交互通道 + 背景对照 PPR</text>
<text text-anchor="middle" x="448" y="-735" font-family="WenQuanYi Zen Hei" font-size="15.00" fill="#132d46">每个 POI 传播后取最大得分</text>
</g>
<!-- poi&#45;&gt;scoring -->
<g id="edge9" class="edge">
<title>poi&#45;&gt;scoring</title>
<path fill="none" stroke="#57738d" d="M668.12,-984.84C650.34,-970.15 632,-955 632,-955 632,-955 575,-847 575,-847 575,-847 537.83,-820.52 503.71,-796.2"/>
<polygon fill="#57738d" stroke="#57738d" points="504.95,-794.08 497.83,-792.01 502.11,-798.07 504.95,-794.08"/>
<text text-anchor="middle" x="656.5" y="-880.4" font-family="WenQuanYi Zen Hei" font-size="12.00" fill="#456078">起点策略</text>
</g>
<!-- selection -->
<g id="node7" class="node">
<title>selection</title>
<path fill="#eaf7f2" stroke="#7bbba7" stroke-width="1.2" d="M527.5,-664C527.5,-664 342.5,-664 342.5,-664 336.5,-664 330.5,-658 330.5,-652 330.5,-652 330.5,-603 330.5,-603 330.5,-597 336.5,-591 342.5,-591 342.5,-591 527.5,-591 527.5,-591 533.5,-591 539.5,-597 539.5,-603 539.5,-603 539.5,-652 539.5,-652 539.5,-658 533.5,-664 527.5,-664"/>
<text text-anchor="middle" x="435" y="-641" font-family="WenQuanYi Zen Hei" font-size="15.00" fill="#132d46">时序因果见证 + 预算选择</text>
<text text-anchor="middle" x="435" y="-624" font-family="WenQuanYi Zen Hei" font-size="15.00" fill="#132d46">优先保留候选内完整见证包</text>
<text text-anchor="middle" x="435" y="-607" font-family="WenQuanYi Zen Hei" font-size="15.00" fill="#132d46">可回退到时间分叉见证</text>
</g>
<!-- poi&#45;&gt;selection -->
<g id="edge10" class="edge">
<title>poi&#45;&gt;selection</title>
<path fill="none" stroke="#57738d" stroke-dasharray="5,2" d="M698.03,-984.75C692.92,-937.89 683,-847 683,-847 683,-847 574,-719 574,-719 574,-719 532.98,-692.3 495.51,-667.9"/>
<polygon fill="#57738d" stroke="#57738d" points="496.74,-665.77 489.54,-664.01 494.07,-669.88 496.74,-665.77"/>
<text text-anchor="middle" x="708" y="-816.4" font-family="WenQuanYi Zen Hei" font-size="12.00" fill="#456078">预算 / 必留起点</text>
</g>
<!-- candidates&#45;&gt;evidence -->
<g id="edge8" class="edge">
<title>candidates&#45;&gt;evidence</title>
<path fill="none" stroke="#57738d" d="M261.92,-883.5C283.7,-883.5 306.48,-883.5 328.34,-883.5"/>
<polygon fill="#57738d" stroke="#57738d" points="328.4,-885.95 335.4,-883.5 328.4,-881.05 328.4,-885.95"/>
<text text-anchor="middle" x="298.5" y="-889.9" font-family="WenQuanYi Zen Hei" font-size="12.00" fill="#456078">候选行为</text>
</g>
<!-- candidates&#45;&gt;scoring -->
<g id="edge1" class="edge">
<title>candidates&#45;&gt;scoring</title>
<path fill="none" stroke="#57738d" d="M229.9,-846.9C269.07,-830.66 315.51,-811.41 355.45,-794.86"/>
<polygon fill="#57738d" stroke="#57738d" points="356.79,-796.96 362.32,-792.01 354.91,-792.43 356.79,-796.96"/>
<text text-anchor="middle" x="323.5" y="-816.4" font-family="WenQuanYi Zen Hei" font-size="12.00" fill="#456078">事件图</text>
</g>
<!-- candidates&#45;&gt;selection -->
<g id="edge4" class="edge">
<title>candidates&#45;&gt;selection</title>
<path fill="none" stroke="#57738d" stroke-dasharray="5,2" d="M169.68,-846.62C204.12,-798.49 261,-719 261,-719 261,-719 313.19,-691.85 360.41,-667.3"/>
<polygon fill="#57738d" stroke="#57738d" points="361.65,-669.41 366.73,-664.01 359.39,-665.06 361.65,-669.41"/>
<text text-anchor="middle" x="291.5" y="-752.4" font-family="WenQuanYi Zen Hei" font-size="12.00" fill="#456078">方向与时间</text>
</g>
<!-- evidence&#45;&gt;scoring -->
<g id="edge2" class="edge">
<title>evidence&#45;&gt;scoring</title>
<path fill="none" stroke="#57738d" d="M448.72,-846.73C448.6,-832.1 448.46,-815.04 448.34,-799.72"/>
<polygon fill="#57738d" stroke="#57738d" points="450.79,-799.34 448.28,-792.36 445.89,-799.38 450.79,-799.34"/>
<text text-anchor="middle" x="478.5" y="-816.4" font-family="WenQuanYi Zen Hei" font-size="12.00" fill="#456078">校准稀有度</text>
</g>
<!-- scoring&#45;&gt;selection -->
<g id="edge3" class="edge">
<title>scoring&#45;&gt;selection</title>
<path fill="none" stroke="#57738d" d="M444.31,-718.73C442.8,-704.1 441.04,-687.04 439.46,-671.72"/>
<polygon fill="#57738d" stroke="#57738d" points="441.86,-671.07 438.7,-664.36 436.98,-671.57 441.86,-671.07"/>
<text text-anchor="middle" x="471.5" y="-688.4" font-family="WenQuanYi Zen Hei" font-size="12.00" fill="#456078">事件重要性</text>
</g>
<!-- freeze -->
<g id="node8" class="node">
<title>freeze</title>
<path fill="#173d54" stroke="#173d54" stroke-width="1.2" d="M551,-536C551,-536 305,-536 305,-536 299,-536 293,-530 293,-524 293,-524 293,-475 293,-475 293,-469 299,-463 305,-463 305,-463 551,-463 551,-463 557,-463 563,-469 563,-475 563,-475 563,-524 563,-524 563,-530 557,-536 551,-536"/>
<text text-anchor="middle" x="428" y="-513" font-family="WenQuanYi Zen Hei" font-size="15.00" fill="white">冻结并验证每个决策</text>
<text text-anchor="middle" x="428" y="-496" font-family="WenQuanYi Zen Hei" font-size="15.00" fill="white">候选 / 分数 / 可选集合 / 保留掩码</text>
<text text-anchor="middle" x="428" y="-479" font-family="WenQuanYi Zen Hei" font-size="15.00" fill="white">manifest 绑定源码、配置与工件哈希</text>
</g>
<!-- selection&#45;&gt;freeze -->
<g id="edge5" class="edge">
<title>selection&#45;&gt;freeze</title>
<path fill="none" stroke="#57738d" d="M433.01,-590.73C432.2,-576.1 431.25,-559.04 430.4,-543.72"/>
<polygon fill="#57738d" stroke="#57738d" points="432.83,-543.21 429.99,-536.36 427.93,-543.48 432.83,-543.21"/>
<text text-anchor="middle" x="473.5" y="-560.4" font-family="WenQuanYi Zen Hei" font-size="12.00" fill="#456078">遍历方法与预算</text>
</g>
<!-- evaluation -->
<g id="node9" class="node">
<title>evaluation</title>
<path fill="#fff3df" stroke="#d7b06a" stroke-width="1.2" d="M224.5,-408C224.5,-408 21.5,-408 21.5,-408 15.5,-408 9.5,-402 9.5,-396 9.5,-396 9.5,-347 9.5,-347 9.5,-341 15.5,-335 21.5,-335 21.5,-335 224.5,-335 224.5,-335 230.5,-335 236.5,-341 236.5,-347 236.5,-347 236.5,-396 236.5,-396 236.5,-402 230.5,-408 224.5,-408"/>
<text text-anchor="middle" x="123" y="-385" font-family="WenQuanYi Zen Hei" font-size="15.00" fill="#132d46">离线参考评价</text>
<text text-anchor="middle" x="123" y="-368" font-family="WenQuanYi Zen Hei" font-size="15.00" fill="#132d46">固定参考路径 + 固定参考子图</text>
<text text-anchor="middle" x="123" y="-351" font-family="WenQuanYi Zen Hei" font-size="15.00" fill="#132d46">逐阶段损失与压缩率曲线</text>
</g>
<!-- freeze&#45;&gt;evaluation -->
<g id="edge11" class="edge">
<title>freeze&#45;&gt;evaluation</title>
<path fill="none" stroke="#57738d" d="M341.82,-462.9C302.52,-446.66 255.93,-427.41 215.85,-410.86"/>
<polygon fill="#57738d" stroke="#57738d" points="216.37,-408.42 208.96,-408.01 214.5,-412.95 216.37,-408.42"/>
<text text-anchor="middle" x="314.5" y="-432.4" font-family="WenQuanYi Zen Hei" font-size="12.00" fill="#456078">先全局校验</text>
</g>
<!-- export -->
<g id="node10" class="node">
<title>export</title>
<path fill="#eef4fb" stroke="#91abc6" stroke-width="1.2" d="M737,-408C737,-408 521,-408 521,-408 515,-408 509,-402 509,-396 509,-396 509,-347 509,-347 509,-341 515,-335 521,-335 521,-335 737,-335 737,-335 743,-335 749,-341 749,-347 749,-347 749,-396 749,-396 749,-402 743,-408 737,-408"/>
<text text-anchor="middle" x="629" y="-385" font-family="WenQuanYi Zen Hei" font-size="15.00" fill="#132d46">精确导出实际保留图</text>
<text text-anchor="middle" x="629" y="-368" font-family="WenQuanYi Zen Hei" font-size="15.00" fill="#132d46">读取指定方法 / 整数预算的掩码</text>
<text text-anchor="middle" x="629" y="-351" font-family="WenQuanYi Zen Hei" font-size="15.00" fill="#132d46">JSON · CSV · GraphML</text>
</g>
<!-- freeze&#45;&gt;export -->
<g id="edge12" class="edge">
<title>freeze&#45;&gt;export</title>
<path fill="none" stroke="#57738d" d="M484.79,-462.9C510.16,-447 540.13,-428.21 566.17,-411.89"/>
<polygon fill="#57738d" stroke="#57738d" points="567.72,-413.81 572.35,-408.01 565.12,-409.66 567.72,-413.81"/>
<text text-anchor="middle" x="582.5" y="-432.4" font-family="WenQuanYi Zen Hei" font-size="12.00" fill="#456078">不重选、不重评分</text>
</g>
<!-- summary -->
<g id="node12" class="node">
<title>summary</title>
<path fill="#fff3df" stroke="#d7b06a" stroke-width="1.2" d="M208.5,-280C208.5,-280 37.5,-280 37.5,-280 31.5,-280 25.5,-274 25.5,-268 25.5,-268 25.5,-219 25.5,-219 25.5,-213 31.5,-207 37.5,-207 37.5,-207 208.5,-207 208.5,-207 214.5,-207 220.5,-213 220.5,-219 220.5,-219 220.5,-268 220.5,-268 220.5,-274 214.5,-280 208.5,-280"/>
<text text-anchor="middle" x="123" y="-257" font-family="WenQuanYi Zen Hei" font-size="15.00" fill="#132d46">公开聚合报告</text>
<text text-anchor="middle" x="123" y="-240" font-family="WenQuanYi Zen Hei" font-size="15.00" fill="#132d46">曲线 / 达标预算离线筛选</text>
<text text-anchor="middle" x="123" y="-223" font-family="WenQuanYi Zen Hei" font-size="15.00" fill="#132d46">不含逐事件明细</text>
</g>
<!-- evaluation&#45;&gt;summary -->
<g id="edge14" class="edge">
<title>evaluation&#45;&gt;summary</title>
<path fill="none" stroke="#57738d" d="M123,-334.73C123,-320.1 123,-303.04 123,-287.72"/>
<polygon fill="#57738d" stroke="#57738d" points="125.45,-287.36 123,-280.36 120.55,-287.36 125.45,-287.36"/>
</g>
<!-- local -->
<g id="node13" class="node">
<title>local</title>
<path fill="#eef4fb" stroke="#91abc6" stroke-width="1.2" d="M463,-280C463,-280 257,-280 257,-280 251,-280 245,-274 245,-268 245,-268 245,-219 245,-219 245,-213 251,-207 257,-207 257,-207 463,-207 463,-207 469,-207 475,-213 475,-219 475,-219 475,-268 475,-268 475,-274 469,-280 463,-280"/>
<text text-anchor="middle" x="360" y="-257" font-family="WenQuanYi Zen Hei" font-size="15.00" fill="#132d46">本机保留事件与审计叠加</text>
<text text-anchor="middle" x="360" y="-240" font-family="WenQuanYi Zen Hei" font-size="15.00" fill="#132d46">精确事件 ID / 时间 / 缺失依赖</text>
<text text-anchor="middle" x="360" y="-223" font-family="WenQuanYi Zen Hei" font-size="15.00" fill="#132d46">目录与冻结点绑定</text>
</g>
<!-- evaluation&#45;&gt;local -->
<g id="edge15" class="edge">
<title>evaluation&#45;&gt;local</title>
<path fill="none" stroke="#57738d" stroke-dasharray="5,2" d="M189.96,-334.9C220.12,-318.86 255.81,-299.89 286.69,-283.48"/>
<polygon fill="#57738d" stroke="#57738d" points="288.17,-285.46 293.2,-280.01 285.87,-281.14 288.17,-285.46"/>
<text text-anchor="middle" x="272.5" y="-304.4" font-family="WenQuanYi Zen Hei" font-size="12.00" fill="#456078">参考审计</text>
</g>
<!-- export&#45;&gt;local -->
<g id="edge16" class="edge">
<title>export&#45;&gt;local</title>
<path fill="none" stroke="#57738d" d="M552.99,-334.9C518.48,-318.73 477.58,-299.57 442.33,-283.06"/>
<polygon fill="#57738d" stroke="#57738d" points="443.2,-280.76 435.82,-280.01 441.12,-285.2 443.2,-280.76"/>
</g>
<!-- references -->
<g id="node11" class="node">
<title>references</title>
<path fill="#fff3df" stroke="#d7b06a" stroke-width="1.2" d="M472,-399.5C472,-399.5 346,-399.5 346,-399.5 340,-399.5 334,-393.5 334,-387.5 334,-387.5 334,-355.5 334,-355.5 334,-349.5 340,-343.5 346,-343.5 346,-343.5 472,-343.5 472,-343.5 478,-343.5 484,-349.5 484,-355.5 484,-355.5 484,-387.5 484,-387.5 484,-393.5 478,-399.5 472,-399.5"/>
<text text-anchor="middle" x="409" y="-376.5" font-family="WenQuanYi Zen Hei" font-size="15.00" fill="#132d46">源正例 / 参考标注</text>
<text text-anchor="middle" x="409" y="-359.5" font-family="WenQuanYi Zen Hei" font-size="15.00" fill="#132d46">仅供冻结后的评价</text>
</g>
<!-- references&#45;&gt;evaluation -->
<g id="edge13" class="edge">
<title>references&#45;&gt;evaluation</title>
<path fill="none" stroke="#b88734" d="M333.7,-371.5C306.27,-371.5 274.53,-371.5 244.14,-371.5"/>
<polygon fill="#b88734" stroke="#b88734" points="243.86,-369.05 236.86,-371.5 243.86,-373.95 243.86,-369.05"/>
<text text-anchor="middle" x="285.25" y="-377.9" font-family="WenQuanYi Zen Hei" font-size="12.00" fill="#456078">固定评价分母</text>
</g>
<!-- web -->
<g id="node14" class="node">
<title>web</title>
<path fill="#eeeafa" stroke="#b1a2d1" stroke-width="1.2" d="M407,-164C407,-164 75,-164 75,-164 69,-164 63,-158 63,-152 63,-152 63,-103 63,-103 63,-97 69,-91 75,-91 75,-91 407,-91 407,-91 413,-91 419,-97 419,-103 419,-103 419,-152 419,-152 419,-158 413,-164 407,-164"/>
<text text-anchor="middle" x="241" y="-141" font-family="WenQuanYi Zen Hei" font-size="15.00" fill="#132d46">Flask 静态服务 → HTML</text>
<text text-anchor="middle" x="241" y="-124" font-family="WenQuanYi Zen Hei" font-size="15.00" fill="#132d46">research&#45;workbench：聚合比较、曲线、目标预算</text>
<text text-anchor="middle" x="241" y="-107" font-family="WenQuanYi Zen Hei" font-size="15.00" fill="#132d46">retained&#45;chains：实际链路、子图、逐事件下载</text>
</g>
<!-- summary&#45;&gt;web -->
<g id="edge17" class="edge">
<title>summary&#45;&gt;web</title>
<path fill="none" stroke="#57738d" d="M160.01,-206.74C172.31,-194.86 186.1,-181.54 198.77,-169.3"/>
<polygon fill="#57738d" stroke="#57738d" points="200.79,-170.76 204.12,-164.13 197.38,-167.23 200.79,-170.76"/>
</g>
<!-- local&#45;&gt;web -->
<g id="edge18" class="edge">
<title>local&#45;&gt;web</title>
<path fill="none" stroke="#57738d" d="M322.67,-206.74C310.16,-194.75 296.11,-181.3 283.25,-168.97"/>
<polygon fill="#57738d" stroke="#57738d" points="284.94,-167.2 278.19,-164.13 281.55,-170.74 284.94,-167.2"/>
</g>
<!-- scope -->
<g id="node15" class="node">
<title>scope</title>
<polygon fill="#f5f7fa" stroke="#c5d0dc" stroke-width="1.2" points="426,-48 50,-48 50,0 432,0 432,-42 426,-48"/>
<polyline fill="none" stroke="#c5d0dc" stroke-width="1.2" points="426,-48 426,-42 "/>
<polyline fill="none" stroke="#c5d0dc" stroke-width="1.2" points="432,-42 426,-42 "/>
<text text-anchor="middle" x="241" y="-27.4" font-family="WenQuanYi Zen Hei" font-size="12.00" fill="#132d46">当前实测：9 个 E3 案例 / 36 个变体 / 7 种方法 / 2520 个决策点</text>
<text text-anchor="middle" x="241" y="-14.4" font-family="WenQuanYi Zen Hei" font-size="12.00" fill="#132d46">E5 缺少匹配原始事件，尚无 E5 实验结果；网页只读取已有结果。</text>
</g>
<!-- web&#45;&gt;scope -->
</g>
</svg>
